<?xml version="1.0" encoding="utf-8"?>
<!-- Generator: Adobe Illustrator 28.2.0, SVG Export Plug-In . SVG Version: 6.00 Build 0)  -->
<svg version="1.1" xmlns="http://www.w3.org/2000/svg" xmlns:xlink="http://www.w3.org/1999/xlink" x="0px" y="0px"
	 viewBox="0 0 1000 779" style="enable-background:new 0 0 1000 779;" xml:space="preserve">
<style type="text/css">
	.st0{fill:#1D1D1B;}
	.st1{font-family:'Roboto-Regular';}
	.st2{font-size:20px;}
	.st3{fill:none;stroke:#1D1D1B;stroke-miterlimit:10;}
	.st4{font-size:18px;}
	.st5{fill:none;}
</style>
<g id="Capa_1">
	
		<image style="overflow:visible;" width="5500" height="4250" xlink:href="../../Downloads/estaciones.jpg"  transform="matrix(0.1808 0 0 0.1808 -1.2253 0.9605)">
	</image>
	<text transform="matrix(1 0 0 1 44.4214 398.1395)"><tspan x="0" y="0" class="st0 st1 st2">Lower Manhattan has </tspan><tspan x="0" y="24" class="st0 st1 st2">the largest number </tspan><tspan x="0" y="48" class="st0 st1 st2">of bike stations </tspan></text>
	<line class="st3" x1="188.5" y1="434.3" x2="253.2" y2="457.5"/>
	<line class="st3" x1="227.5" y1="467.1" x2="253.2" y2="457.1"/>
	<line class="st3" x1="253.8" y1="457.4" x2="241.2" y2="431.4"/>
	<text transform="matrix(1 0 0 1 370.5625 333.7604)" class="st0 st1 st4">Manhattan </text>
	<text transform="matrix(1 0 0 1 577.5165 157.8551)" class="st0 st1 st4">Bronx</text>
	<text transform="matrix(1 0 0 1 586.1203 419.0733)" class="st0 st1 st4">Queens</text>
	<text transform="matrix(1 0 0 1 409.3889 656.2167)" class="st0 st1 st4">Brooklyn</text>
	<text transform="matrix(1 0 0 1 700.0801 123.2816)" class="st0 st1 st2">No bikes here</text>
	<text transform="matrix(0.9877 -0.1564 0.1564 0.9877 746.3243 546.0514)" class="st0 st1 st2">No bikes here either</text>
	<text transform="matrix(1 0 0 1 552.9857 725.8655)" class="st0 st1 st2">Or here</text>
	<text transform="matrix(1 0 0 1 283.3435 72.5485)"><tspan x="0" y="0" class="st0 st1 st2">Manhattan is the </tspan><tspan x="0" y="24" class="st0 st1 st2">is the only borough </tspan><tspan x="0" y="48" class="st0 st1 st2">with bicycles in </tspan><tspan x="0" y="72" class="st0 st1 st2">its entire area</tspan></text>
	<rect x="367.5" y="144.6" class="st5" width="22.6" height="0"/>
	<rect x="273.5" y="123.3" class="st5" width="72.7" height="48.9"/>
	<polyline class="st5" points="355.1,177 360,135.8 416.4,135.8 411.5,177 	"/>
</g>
<g id="ai2html-settings">
	<rect x="-450" class="st5" width="400" height="456"/>
	<text id="ai2html-settings_00000176014848787352522280000005894197824445527435_" transform="matrix(1 0 0 1 -450 10.6499)"><tspan x="0" y="0" style="font-family:'MyriadPro-Regular'; font-size:15px;">ai2html-settings</tspan><tspan x="0" y="19" style="font-family:'MyriadPro-Regular'; font-size:15px;">settings_version: 0.120.0</tspan><tspan x="0" y="38" style="font-family:'MyriadPro-Regular'; font-size:15px;">image_format: auto</tspan><tspan x="0" y="57" style="font-family:'MyriadPro-Regular'; font-size:15px;">responsiveness: fixed</tspan><tspan x="0" y="76" style="font-family:'MyriadPro-Regular'; font-size:15px;">include_resizer_script: false</tspan><tspan x="0" y="95" style="font-family:'MyriadPro-Regular'; font-size:15px;">use_lazy_loader: false</tspan><tspan x="0" y="114" style="font-family:'MyriadPro-Regular'; font-size:15px;">output: one-file</tspan><tspan x="0" y="133" style="font-family:'MyriadPro-Regular'; font-size:15px;">html_output_path: ai2html-output/</tspan><tspan x="0" y="152" style="font-family:'MyriadPro-Regular'; font-size:15px;">image_output_path: ai2html-output/</tspan><tspan x="0" y="171" style="font-family:'MyriadPro-Regular'; font-size:15px;">image_source_path: </tspan><tspan x="0" y="190" style="font-family:'MyriadPro-Regular'; font-size:15px;">local_preview_template: </tspan><tspan x="0" y="209" style="font-family:'MyriadPro-Regular'; font-size:15px;">png_number_of_colors: 128</tspan><tspan x="0" y="228" style="font-family:'MyriadPro-Regular'; font-size:15px;">jpg_quality: 60</tspan><tspan x="0" y="247" style="font-family:'MyriadPro-Regular'; font-size:15px;">headline: </tspan><tspan x="0" y="266" style="font-family:'MyriadPro-Regular'; font-size:15px;">leadin: </tspan><tspan x="0" y="285" style="font-family:'MyriadPro-Regular'; font-size:15px;">notes: </tspan><tspan x="0" y="304" style="font-family:'MyriadPro-Regular'; font-size:15px;">sources: </tspan><tspan x="0" y="323" style="font-family:'MyriadPro-Regular'; font-size:15px;">credit: </tspan></text>
</g>
</svg>
